HIERARCHY
ROOT Hips
{
	OFFSET 0.000000 0.000000 0.000000
	CHANNELS 6 Xposition Yposition Zposition Xrotation Yrotation Zrotation
	JOINT LeftUpLeg_virtual
	{
		OFFSET 0.000000 0.000000 0.000000
		CHANNELS 3 Xrotation Yrotation Zrotation
		JOINT LeftUpLeg
		{
			OFFSET 13.026900 -6.336304 -1.092800
			CHANNELS 3 Xrotation Yrotation Zrotation
			JOINT LeftLeg
			{
				OFFSET 0.524474 -46.096886 9.782700
				CHANNELS 3 Xrotation Yrotation Zrotation
				JOINT LeftFoot
				{
					OFFSET -0.524474 -53.427422 -12.948200
					CHANNELS 3 Xrotation Yrotation Zrotation
					JOINT LeftToeBase
					{
						OFFSET 0.192200 -14.009700 16.364100
						CHANNELS 3 Xrotation Yrotation Zrotation
						JOINT LeftToe_End
						{
							OFFSET -1.784700 -0.561700 9.474800
							CHANNELS 3 Xrotation Yrotation Zrotation
							End Site
							{
								OFFSET 0 0 0
							}
						}
					}
				}
			}
		}
	}
	JOINT RightUpLeg_virtual
	{
		OFFSET 0.000000 0.000000 0.000000
		CHANNELS 3 Xrotation Yrotation Zrotation
		JOINT RightUpLeg
		{
			OFFSET -12.883000 -6.336304 -1.092800
			CHANNELS 3 Xrotation Yrotation Zrotation
			JOINT RightLeg
			{
				OFFSET -0.524587 -46.096825 9.782800
				CHANNELS 3 Xrotation Yrotation Zrotation
				JOINT RightFoot
				{
					OFFSET 0.524587 -53.427383 -12.948300
					CHANNELS 3 Xrotation Yrotation Zrotation
					JOINT RightToeBase
					{
						OFFSET -0.192200 -14.009700 16.364100
						CHANNELS 3 Xrotation Yrotation Zrotation
						JOINT RightToe_End
						{
							OFFSET 1.784700 -0.561700 9.474800
							CHANNELS 3 Xrotation Yrotation Zrotation
							End Site
							{
								OFFSET 0 0 0
							}
						}
					}
				}
			}
		}
	}
	JOINT Spine_virtual
	{
		OFFSET 0.000000 0.000000 0.000000
		CHANNELS 3 Xrotation Yrotation Zrotation
		JOINT Spine
		{
			OFFSET 0.072000 7.257294 -0.789700
			CHANNELS 3 Xrotation Yrotation Zrotation
			JOINT Spine1
			{
				OFFSET 0.000000 12.508769 -0.658067
				CHANNELS 3 Xrotation Yrotation Zrotation
				JOINT Spine1_split
				{
					OFFSET 0.000000 12.508769 -0.658067
					CHANNELS 3 Xrotation Yrotation Zrotation
					JOINT Spine2
					{
						OFFSET 0.000000 12.508769 -0.658067
						CHANNELS 3 Xrotation Yrotation Zrotation
						JOINT Neck_virtual
						{
							OFFSET 0.000000 0.000000 0.000000
							CHANNELS 3 Xrotation Yrotation Zrotation
							JOINT Neck
							{
								OFFSET 0.000000 14.033295 7.520400
								CHANNELS 3 Xrotation Yrotation Zrotation
								JOINT Head
								{
									OFFSET 0.000000 8.198502 5.703100
									CHANNELS 3 Xrotation Yrotation Zrotation
									JOINT HeadTop_End
									{
										OFFSET 0.000000 17.760803 13.332701
										CHANNELS 3 Xrotation Yrotation Zrotation
										End Site
										{
											OFFSET 0 0 0
										}
									}
								}
							}
						}
						JOINT LeftShoulder_virtual
						{
							OFFSET 0.000000 0.000000 0.000000
							CHANNELS 3 Xrotation Yrotation Zrotation
							JOINT LeftShoulder
							{
								OFFSET 6.292450 5.785301 -0.669000
								CHANNELS 3 Xrotation Yrotation Zrotation
								JOINT LeftShoulder_split
								{
									OFFSET 6.292450 5.785301 -0.669000
									CHANNELS 3 Xrotation Yrotation Zrotation
									JOINT LeftArm
									{
										OFFSET 13.907140 -6.093903 1.965100
										CHANNELS 3 Xrotation Yrotation Zrotation
										JOINT LeftForeArm
										{
											OFFSET 34.140198 0.000000 0.000000
											CHANNELS 3 Xrotation Yrotation Zrotation
											JOINT LeftHand
											{
												OFFSET 40.960209 0.000000 0.000000
												CHANNELS 3 Xrotation Yrotation Zrotation
												End Site
												{
													OFFSET 0 0 0
												}
											}
										}
									}
								}
							}
						}
						JOINT RightShoulder_virtual
						{
							OFFSET 0.000000 0.000000 0.000000
							CHANNELS 3 Xrotation Yrotation Zrotation
							JOINT RightShoulder
							{
								OFFSET -6.292450 5.785301 -0.669000
								CHANNELS 3 Xrotation Yrotation Zrotation
								JOINT RightShoulder_split
								{
									OFFSET -6.292450 5.785301 -0.669000
									CHANNELS 3 Xrotation Yrotation Zrotation
									JOINT RightArm
									{
										OFFSET -13.907140 -6.093903 1.965100
										CHANNELS 3 Xrotation Yrotation Zrotation
										JOINT RightForeArm
										{
											OFFSET -34.140198 0.000000 0.000000
											CHANNELS 3 Xrotation Yrotation Zrotation
											JOINT RightHand
											{
												OFFSET -40.960209 0.000000 0.000000
												CHANNELS 3 Xrotation Yrotation Zrotation
												End Site
												{
													OFFSET 0 0 0
												}
											}
										}
									}
								}
							}
						}
					}
				}
			}
		}
	}
}
MOTION
Frames: 9
Frame Time: 0.03333333
7.881698 104.990692 -1.277500 0.000000 0.000000 0.000000 169.955939 -75.696978 -179.915639 -11.450728 18.428042 12.390495 40.138279 14.245767 -5.966360 -15.894996 16.410312 -19.634499 -0.677209 -0.298982 -0.464503 0.000000 0.000000 0.000000 165.700061 -77.421321 176.593557 -37.373183 12.889290 -14.991628 37.237706 -0.716584 -8.372187 -11.323470 18.162559 15.844398 0.314933 1.358603 1.431160 0.000000 0.000000 0.000000 168.182248 -77.966336 178.780447 25.883536 -11.758988 7.880161 22.676725 -2.586627 0.783084 0.675559 -1.094703 1.433224 0.000000 0.000000 0.000000 21.998337 -2.834667 0.698214 12.248806 -3.030587 -5.636656 -26.488536 17.523883 -9.008015 0.000000 0.000000 0.000000 23.848832 -3.131655 1.062427 -0.736040 -10.710830 10.274084 -2.762451 -2.468166 1.248367 16.314038 18.118530 -75.777390 11.112224 -81.575661 9.372570 0.000000 0.000000 0.000000 22.462467 -2.790831 1.410935 6.972523 16.475668 13.175687 6.255989 4.029146 5.006335 -61.222838 52.714878 51.610050 178.136798 66.419512 -176.973494 0.000000 0.000000 0.000000 
7.824578 104.430260 -1.952591 0.000000 0.000000 0.000000 175.561584 -78.479147 -173.516366 -11.641530 19.253605 13.373194 41.155862 12.338217 -5.567474 -17.372772 13.739377 -19.686618 -1.701495 -0.269329 -0.312725 0.000000 0.000000 0.000000 171.488770 -81.150359 -176.983985 -37.318118 10.745792 -16.802093 40.640380 -1.388271 -8.238667 -11.435970 15.618460 14.833754 0.931731 1.422904 1.294194 0.000000 0.000000 0.000000 174.778066 -80.361082 -174.350032 24.767463 -12.525877 7.426266 22.461036 -2.860200 1.028106 1.429925 -0.662050 1.473988 0.000000 0.000000 0.000000 21.736082 -3.154338 0.889597 11.325889 -2.806383 -7.303996 -22.993381 19.263451 -10.641393 0.000000 0.000000 0.000000 23.551732 -3.370176 1.347025 -0.686275 -9.549402 9.390393 -2.676684 -2.892886 1.122710 8.343494 26.740448 -71.023162 -1.439714 -86.135270 -2.215124 0.000000 0.000000 0.000000 22.151666 -3.076054 1.576322 7.295388 17.751791 13.379149 5.149431 3.903877 4.904159 -55.841742 46.953985 45.587732 177.781792 65.888909 -176.754422 0.000000 0.000000 0.000000 
7.666229 103.918701 -2.877617 0.000000 0.000000 0.000000 -172.040977 -82.316504 -160.512656 -12.262272 19.421511 14.688366 41.818704 10.003422 -4.687791 -18.156736 10.324623 -20.333553 -2.119800 -0.213504 -0.234888 0.000000 0.000000 0.000000 -170.191430 -85.645668 -158.234009 -37.022569 8.513112 -18.703495 44.211032 -2.266658 -7.932271 -11.152879 12.715496 14.136317 1.282354 1.457935 1.049976 0.000000 0.000000 0.000000 -173.333576 -83.624062 -162.554076 23.281072 -12.632577 7.216275 21.889238 -3.080170 1.301726 1.721385 0.029557 1.199304 0.000000 0.000000 0.000000 21.462242 -3.450065 1.114039 9.695268 -2.582363 -7.606387 -19.433515 20.618029 -12.131278 0.000000 0.000000 0.000000 23.043195 -3.536164 1.617573 -0.603048 -8.622675 8.877021 -1.962607 -2.445443 0.628919 1.005119 29.827942 -67.070067 -156.766830 -86.729360 -156.624188 0.000000 0.000000 0.000000 21.754468 -3.336464 1.696269 7.608605 19.047159 13.304211 3.750722 3.765320 4.340842 -53.619331 42.165988 43.097251 178.273743 66.063728 -177.425939 0.000000 0.000000 0.000000 
7.494816 103.499741 -3.634369 0.000000 0.000000 0.000000 -131.304240 -85.976201 -119.523611 -13.238467 18.855313 15.984862 42.061538 7.826268 -3.487064 -18.451611 6.684569 -21.069371 -1.895792 -0.130213 -0.285638 0.000000 0.000000 0.000000 -73.531638 -87.095116 -61.353376 -36.164134 6.609415 -20.258111 47.393501 -3.242787 -7.621257 -10.810881 9.650377 13.830265 1.250872 1.446727 0.831657 0.000000 0.000000 0.000000 -137.316104 -86.687135 -126.893003 21.596177 -12.044024 7.052823 20.985888 -3.154104 1.380199 1.260037 0.527291 0.606454 0.000000 0.000000 0.000000 21.093065 -3.648600 1.107202 7.821553 -2.352495 -6.589776 -15.872193 21.544565 -13.043535 0.000000 0.000000 0.000000 22.324123 -3.621464 1.610279 -0.504855 -8.087885 8.529323 -1.377412 -1.861072 -0.174257 -2.861005 27.469453 -65.676572 -171.830429 -78.674094 -171.086635 0.000000 0.000000 0.000000 21.289809 -3.503665 1.595111 7.790126 20.113019 12.967167 2.266554 4.026065 3.874994 -53.151576 38.115929 42.820724 179.338023 67.037091 -178.788370 0.000000 0.000000 0.000000 
7.235413 103.113083 -4.171917 0.000000 0.000000 0.000000 -57.245427 -84.337072 -45.547779 -14.586870 17.622224 17.094543 42.199658 6.147554 -2.155178 -18.311956 3.063811 -21.536963 -1.541601 -0.037289 -0.357816 0.000000 0.000000 0.000000 -35.023523 -82.115389 -22.872714 -34.713019 5.176897 -21.314874 49.671226 -4.246101 -7.469856 -10.598025 6.575451 13.910439 0.878740 1.395321 0.739542 0.000000 0.000000 0.000000 -60.322120 -85.737862 -50.243852 19.921075 -10.799082 6.687884 19.793497 -3.014422 1.146258 0.443330 0.925802 0.063347 0.000000 0.000000 0.000000 20.482655 -3.623566 0.741852 6.104051 -2.020352 -4.613756 -12.344589 22.302694 -13.125054 0.000000 0.000000 0.000000 21.322133 -3.543525 1.209087 -0.434286 -7.846716 8.121773 -1.273707 -1.544135 -1.118153 -2.835168 21.367473 -66.563240 -176.362383 -71.030388 -175.406757 0.000000 0.000000 0.000000 20.689212 -3.452330 1.184753 7.860253 20.363219 12.069053 0.784097 5.377530 3.785459 -53.147840 34.640506 43.323255 -179.287329 68.705904 179.423004 0.000000 0.000000 0.000000 
6.898132 102.555641 -4.292164 0.000000 0.000000 0.000000 -33.280384 -78.957567 -21.931959 -16.422584 15.942580 17.873965 42.688307 5.051835 -0.867083 -17.905623 -0.323564 -21.453563 -1.621177 0.020449 -0.337551 0.000000 0.000000 0.000000 -25.481078 -76.387784 -13.534553 -32.876856 4.133399 -22.046715 51.036983 -5.175093 -7.498276 -10.712810 3.758144 14.281966 0.574276 1.316336 0.810564 0.000000 0.000000 0.000000 -34.805053 -81.327076 -24.966293 18.331263 -8.930025 6.015861 18.286151 -2.592899 0.654338 -0.323384 0.572998 0.028639 0.000000 0.000000 0.000000 19.375807 -3.288241 0.106625 4.773462 -1.535293 -2.325132 -8.911988 23.042765 -12.338630 0.000000 0.000000 0.000000 19.892559 -3.233559 0.453774 -0.424553 -7.524265 7.359875 -1.754261 -1.412977 -2.126620 -0.598340 13.252216 -67.758134 -179.047590 -65.575082 -178.114449 0.000000 0.000000 0.000000 19.743910 -3.110262 0.530268 7.739897 19.717940 10.722588 -0.291083 7.224854 4.095933 -53.464317 31.717305 44.213375 -177.854028 70.602238 177.488790 0.000000 0.000000 0.000000 
6.551181 101.819481 -4.049187 0.000000 0.000000 0.000000 -23.659598 -73.083666 -12.892459 -18.910765 14.034054 18.219050 43.981893 4.470775 0.220107 -17.418152 -3.253732 -20.508475 -2.087406 0.022050 -0.258319 0.000000 0.000000 0.000000 -20.458524 -70.674378 -8.866580 -30.977435 3.167748 -22.906523 51.858843 -5.855662 -7.602098 -11.116930 1.440823 14.904412 0.606656 1.248476 1.009937 0.000000 0.000000 0.000000 -25.408521 -76.230949 -15.758443 16.862115 -6.576022 5.003879 16.528382 -1.959419 0.126117 -0.566413 0.109124 0.523268 0.000000 0.000000 0.000000 17.698704 -2.635711 -0.598914 3.822873 -0.867054 -0.257876 -5.982749 23.718424 -10.766163 0.000000 0.000000 0.000000 18.144982 -2.678654 -0.377260 -0.481567 -6.961367 5.991187 -2.736398 -1.439162 -3.358128 2.122794 5.104155 -67.857151 179.226227 -62.423476 -179.831682 0.000000 0.000000 0.000000 18.417409 -2.417222 -0.113903 7.333000 18.290157 9.058660 -0.337032 9.404455 4.613073 -53.991392 29.267149 45.336661 -176.723700 72.138020 175.856361 0.000000 0.000000 0.000000 
6.132171 100.982513 -3.794674 0.000000 0.000000 0.000000 -18.022405 -67.340952 -8.039820 -22.034078 11.980830 18.184272 46.059241 4.163046 1.023534 -16.718730 -5.630021 -18.986715 -2.708241 0.002489 -0.178446 0.000000 0.000000 0.000000 -17.044927 -65.214913 -5.980733 -29.307085 2.018200 -24.072474 52.364024 -6.247528 -7.678978 -11.620384 -0.296677 15.905014 0.944034 1.192404 1.231253 0.000000 0.000000 0.000000 -19.610009 -70.939697 -10.275370 15.467786 -3.848037 3.769184 14.601249 -1.159546 -0.265780 -0.435331 -0.382056 1.263238 0.000000 0.000000 0.000000 15.447441 -1.692770 -1.120347 3.174832 -0.178017 1.359598 -3.669342 24.057125 -8.764107 0.000000 0.000000 0.000000 16.180593 -1.865101 -1.045019 -0.584036 -6.089114 4.011552 -4.138397 -1.667584 -4.530204 3.286118 -1.145344 -66.682741 178.206930 -61.393873 179.553174 0.000000 0.000000 0.000000 16.714299 -1.349728 -0.592247 6.684437 16.569018 7.353963 0.596317 10.926912 5.001535 -54.707763 27.525254 46.922143 -175.854135 72.896389 174.522193 0.000000 0.000000 0.000000 
5.642715 100.126183 -3.478191 0.000000 0.000000 0.000000 -14.085897 -62.161784 -5.062324 -25.543278 9.856339 17.907605 48.605709 3.922181 1.463961 -15.850905 -7.322910 -17.417047 -3.302341 -0.003936 -0.157887 0.000000 0.000000 0.000000 -14.400518 -60.232638 -4.071840 -27.924720 0.526232 -25.536127 52.732851 -6.357098 -7.660084 -12.173486 -1.487721 17.422665 0.909256 1.111845 1.371248 0.000000 0.000000 0.000000 -14.884244 -65.847122 -6.181956 14.029816 -0.914951 2.479709 12.501784 -0.276046 -0.478261 0.356127 -1.152725 1.965044 0.000000 0.000000 0.000000 12.705368 -0.585538 -1.359660 2.606505 0.421271 2.374795 -2.022805 23.688385 -6.706547 0.000000 0.000000 0.000000 14.054874 -0.898260 -1.397004 -0.649281 -4.985074 1.477687 -5.746512 -2.030027 -5.848206 1.377771 -4.984268 -64.543949 178.006204 -61.584667 -179.830821 0.000000 0.000000 0.000000 14.678121 -0.085972 -0.819159 5.862103 14.902440 5.992298 2.099091 11.230803 4.526503 -55.637768 26.427380 49.410210 -175.478065 72.732991 173.709032 0.000000 0.000000 0.000000 
